<svg width="20" height="22" viewBox="0 0 20 22" fill="none" xmlns="http://www.w3.org/2000/svg">
<path d="M0.499878 0.500078V17.775C0.499878 18.4873 0.784355 19.1703 1.29072 19.6739C1.79709 20.1775 2.48388 20.4605 3.19999 20.4605H15.509C16.2251 20.4605 16.9119 20.1775 17.4183 19.6739C17.9246 19.1703 18.2091 18.4873 18.2091 17.775V3.18549C18.2091 2.47327 17.9246 1.79022 17.4183 1.28661C16.9119 0.782996 16.2251 0.500078 15.509 0.500078H4.64237" fill="white"/>
<path opacity="0.5" d="M11.5009 7.56548L9.0482 6.4099L6.59546 7.56548V1.40291H11.5009V7.56548Z" fill="#FFCC66"/>
<path d="M11.2254 8.4702L9.23251 7.53116C9.18482 7.5089 9.13277 7.49737 9.08009 7.49737C9.0274 7.49737 8.97536 7.5089 8.92766 7.53116L6.93481 8.4702C6.88164 8.49611 6.8227 8.5081 6.76357 8.50507C6.70444 8.50204 6.64706 8.48406 6.59686 8.45285C6.54665 8.42164 6.50526 8.37823 6.47661 8.3267C6.44796 8.27517 6.43299 8.21722 6.43311 8.15833V2.40811C6.43311 2.31621 6.46981 2.22806 6.53515 2.16307C6.60049 2.09809 6.68911 2.0616 6.78151 2.0616H11.3752C11.4676 2.0616 11.5562 2.09809 11.6215 2.16307C11.6869 2.22806 11.7236 2.31621 11.7236 2.40811V8.15833C11.7234 8.21675 11.7084 8.27418 11.6799 8.32528C11.6515 8.37638 11.6105 8.41949 11.5608 8.45061C11.5111 8.48173 11.4542 8.49985 11.3956 8.50327C11.337 8.5067 11.2784 8.49532 11.2254 8.4702Z" stroke="#494949" stroke-width="0.874986" stroke-miterlimit="10"/>
<path d="M2.099 2.05755V18.8838C2.10223 19.5806 2.3835 20.2475 2.881 20.7381C3.3785 21.2286 4.05151 21.5027 4.75208 21.4999H16.8468C17.5474 21.5027 18.2204 21.2286 18.7179 20.7381C19.2154 20.2475 19.4967 19.5806 19.4999 18.8838V4.67712C19.4983 4.3322 19.4284 3.99098 19.2942 3.67293C19.16 3.35487 18.9642 3.06621 18.7178 2.82344C18.4714 2.58067 18.1794 2.38854 17.8584 2.25802C17.5374 2.1275 17.1936 2.06116 16.8468 2.06275L10.9484 2.01424" stroke="#494949" stroke-width="0.874986" stroke-miterlimit="10" stroke-linecap="round"/>
<path d="M6.59546 13.1685H15.6417" stroke="#4D2C19" stroke-width="0.874986" stroke-miterlimit="10" stroke-linecap="round"/>
<path d="M6.59546 15.2476H14.1" stroke="#4D2C19" stroke-width="0.874986" stroke-miterlimit="10" stroke-linecap="round"/>
<path d="M6.59546 17.3262H12.0096" stroke="#4D2C19" stroke-width="0.874986" stroke-miterlimit="10" stroke-linecap="round"/>
</svg>
