<svg width="13" height="22" viewBox="0 0 13 22" fill="none" xmlns="http://www.w3.org/2000/svg">
<path opacity="0.5" d="M6.34347 6.9867L5.81181 7.17341L3.48694 1.41874L3.75925 1.32351C3.98449 1.24314 4.22327 1.20838 4.46187 1.22122C4.70047 1.23405 4.9342 1.29423 5.14968 1.39832C5.36515 1.5024 5.55812 1.64832 5.71752 1.82773C5.87692 2.00714 5.99961 2.21651 6.07857 2.44382L7.10669 5.37716C7.21651 5.69264 7.19786 6.03912 7.05482 6.34077C6.91178 6.64242 6.656 6.87468 6.34347 6.9867Z" fill="#FF9C4F"/>
<path opacity="0.5" d="M10.8693 20.4902L10.3395 20.6769L8.01465 14.9204L8.28696 14.8233C8.51222 14.7431 8.75094 14.7086 8.98947 14.7215C9.22799 14.7345 9.46165 14.7947 9.67706 14.8988C9.89247 15.0028 10.0854 15.1486 10.2449 15.3279C10.4043 15.5072 10.5271 15.7164 10.6063 15.9436L11.6381 18.8788C11.6926 19.0355 11.716 19.2014 11.7069 19.3672C11.6977 19.533 11.6563 19.6954 11.5849 19.845C11.5135 19.9946 11.4136 20.1286 11.2908 20.2393C11.168 20.35 11.0248 20.4353 10.8693 20.4902Z" fill="#FF9C4F"/>
<path d="M5.25829 6.25676L4.72663 6.44348C4.27177 6.60504 3.89916 6.94203 3.69074 7.3804C3.48231 7.81877 3.45512 8.32263 3.61514 8.7812L5.0749 12.9469C5.15426 13.1741 5.27726 13.3834 5.43688 13.5626C5.5965 13.7419 5.78961 13.8878 6.00517 13.9918C6.22073 14.0959 6.45452 14.1561 6.69318 14.169C6.93184 14.1819 7.17067 14.1473 7.39606 14.0672L7.93885 13.8805C8.09259 13.8257 8.25552 13.8021 8.41834 13.8109C8.58116 13.8196 8.74067 13.8606 8.88776 13.9316C9.03485 14.0025 9.16663 14.1019 9.27558 14.2242C9.38453 14.3465 9.46851 14.4891 9.52272 14.6441L10.8491 18.4289C10.9034 18.5833 10.927 18.7469 10.9184 18.9104C10.9099 19.074 10.8695 19.2342 10.7995 19.382C10.7294 19.5297 10.6312 19.6621 10.5103 19.7716C10.3895 19.881 10.2484 19.9654 10.0951 20.0198L8.28155 20.6658C7.9708 20.7778 7.63562 20.8022 7.31212 20.7364C6.98862 20.6706 6.68906 20.5171 6.44573 20.2924C4.04832 18.0646 2.22747 15.2801 1.14167 12.181C0.0558633 9.08193 -0.261966 5.76233 0.21583 2.51118C0.264805 2.18236 0.401745 1.8732 0.611937 1.61693C0.822129 1.36066 1.09763 1.16698 1.40883 1.05666L2.67407 0.604791C3.12903 0.443504 3.62892 0.470908 4.06383 0.680988C4.49875 0.891068 4.8331 1.26663 4.99339 1.7251L6.02152 4.65844C6.12743 4.97252 6.1068 5.31595 5.96407 5.61485C5.82134 5.91375 5.5679 6.14426 5.25829 6.25676Z" fill="white"/>
<path d="M6.34347 6.9867L5.81181 7.17341L3.48694 1.41874L3.75925 1.32351C3.98449 1.24314 4.22327 1.20838 4.46187 1.22122C4.70047 1.23405 4.9342 1.29423 5.14968 1.39832C5.36515 1.5024 5.55812 1.64832 5.71752 1.82773C5.87692 2.00714 5.99961 2.21651 6.07857 2.44382L7.10669 5.37716C7.21651 5.69264 7.19786 6.03912 7.05482 6.34077C6.91178 6.64242 6.656 6.87468 6.34347 6.9867Z" stroke="#4D2C19" stroke-width="0.933595" stroke-miterlimit="10"/>
<path d="M11.1839 20.7462L9.37034 21.3923C9.0599 21.5043 8.72498 21.5288 8.40177 21.463C8.07855 21.3971 7.77931 21.2436 7.53638 21.0188C5.13694 18.7926 3.31458 16.0082 2.22832 12.9088C1.14206 9.80935 0.824938 6.48903 1.30462 3.23765C1.35321 2.90868 1.48999 2.59934 1.70024 2.34301C1.91049 2.08667 2.1862 1.89306 2.49762 1.7831L3.49055 1.42836L5.81357 7.18675C5.58805 7.26633 5.38034 7.38999 5.20234 7.55066C5.02434 7.71132 4.87955 7.90582 4.77629 8.12301C4.67303 8.34019 4.61332 8.57578 4.60058 8.81627C4.58785 9.05676 4.62233 9.29744 4.70207 9.52447L6.16183 13.6901C6.24079 13.9175 6.36348 14.1268 6.52288 14.3062C6.68228 14.4856 6.87525 14.6316 7.09072 14.7356C7.3062 14.8397 7.53994 14.8999 7.77854 14.9128C8.01714 14.9256 8.25591 14.8908 8.48115 14.8105L9.02393 14.6237C9.17779 14.5691 9.34084 14.5455 9.50375 14.5544C9.66666 14.5633 9.82622 14.6044 9.97333 14.6755C10.1204 14.7466 10.2522 14.8463 10.3611 14.9687C10.4699 15.0912 10.5538 15.2341 10.6078 15.3893L11.9342 19.1722C12.0384 19.4813 12.0182 19.8193 11.8779 20.1136C11.7377 20.4079 11.4885 20.6351 11.1839 20.7462Z" stroke="#4D2C19" stroke-width="0.933595" stroke-miterlimit="10"/>
<path d="M8.19739 15.122L10.6186 20.942" stroke="#4D2C19" stroke-width="0.933595" stroke-miterlimit="10"/>
</svg>
