<?xml version="1.0" encoding="UTF-8"?>
<svg version="1.1" xmlns="http://www.w3.org/2000/svg" width="26" height="24">
<path d="M0 0 C3.96 0 7.92 0 12 0 C12 0.66 12 1.32 12 2 C11.01 2.495 11.01 2.495 10 3 C10.59104765 7.84659077 11.97944157 11.60748167 14 16 C15.65 11.71 17.3 7.42 19 3 C18.01 2.67 17.02 2.34 16 2 C16 1.34 16 0.68 16 0 C19.3 0 22.6 0 26 0 C26 0.66 26 1.32 26 2 C25.01 2.66 24.02 3.32 23 4 C21.96747573 5.98541194 21.96747573 5.98541194 21.2109375 8.31640625 C20.90929687 9.16267578 20.60765625 10.00894531 20.296875 10.88085938 C19.84054688 12.20827148 19.84054688 12.20827148 19.375 13.5625 C18.76005321 15.31459013 18.14297866 17.06593542 17.5234375 18.81640625 C17.25450684 19.59443604 16.98557617 20.37246582 16.70849609 21.17407227 C16 23 16 23 15 24 C13.33382885 24.04063832 11.66611905 24.042721 10 24 C8.82807565 20.87694627 7.66336124 17.75125261 6.5 14.625 C6.16613281 13.73554688 5.83226562 12.84609375 5.48828125 11.9296875 C5.01455078 10.65351563 5.01455078 10.65351563 4.53125 9.3515625 C4.23798828 8.56604004 3.94472656 7.78051758 3.64257812 6.97119141 C3 5 3 5 3 3 C2.01 2.67 1.02 2.34 0 2 C0 1.34 0 0.68 0 0 Z " fill="#E8801E" transform="translate(0,0)"/>
</svg>
