<?xml version="1.0" encoding="UTF-8"?>
<svg version="1.1" xmlns="http://www.w3.org/2000/svg" width="17" height="25">
<path d="M0 0 C2.5 1 2.5 1 4 2 C4 3.65 4 5.3 4 7 C2.68 7.33 1.36 7.66 0 8 C-0.66 6.68 -1.32 5.36 -2 4 C-3.65 4.33 -5.3 4.66 -7 5 C-7.75612577 10.23471686 -8.2063366 14.77254141 -7 20 C-1.2025577 20.24428343 -1.2025577 20.24428343 4 18 C4 19.65 4 21.3 4 23 C0.98078922 24.76349357 -1.01962621 25.26527493 -4.5 24.9375 C-5.2528125 24.88464844 -6.005625 24.83179687 -6.78125 24.77734375 C-10.08825553 23.61872738 -11.193786 21.96476552 -13 19 C-14.02309877 12.90374249 -14.18967867 7.00758275 -11 1.625 C-6.87861107 -0.607419 -4.66246084 -0.5180512 0 0 Z " fill="#E8801E" transform="translate(13,0)"/>
</svg>
