<?xml version="1.0" encoding="UTF-8"?>
<svg version="1.1" xmlns="http://www.w3.org/2000/svg" width="20" height="25">
<path d="M0 0 C2.9375 1.4375 2.9375 1.4375 5 4 C5.70637243 7.06270433 5.86029313 9.83331106 6 13 C1.38 13.33 -3.24 13.66 -8 14 C-7.67 15.98 -7.34 17.96 -7 20 C-1.2025577 20.24428343 -1.2025577 20.24428343 4 18 C4.33 18.99 4.66 19.98 5 21 C3 24 3 24 1.01171875 24.6171875 C-2.67477935 25.02610998 -5.33121785 25.23261988 -8.875 24 C-11.69161671 21.34906663 -13.20204011 18.74537929 -14 15 C-14.05568356 10.28280712 -13.49295242 6.06925224 -11 2 C-7.28720382 -0.47519745 -4.30296905 -0.64586475 0 0 Z M-6.75 4.1875 C-8.37848864 6.18185196 -8.37848864 6.18185196 -8 10 C-5.03 10 -2.06 10 1 10 C0.3045656 6.99615946 0.3045656 6.99615946 -1 4 C-3.52507183 2.61528319 -4.35877792 2.56488502 -6.75 4.1875 Z " fill="#E8801E" transform="translate(14,0)"/>
</svg>
