<?xml version="1.0" encoding="UTF-8"?>
<svg version="1.1" xmlns="http://www.w3.org/2000/svg" width="22" height="25">
<path d="M0 0 C3.26352497 1.56081629 4.57713486 2.83661504 5.81640625 6.24609375 C7.12925889 11.67089995 7.24935849 15.75149685 5 21 C2.78411498 23.77150992 1.12523353 24.48077575 -2.375 24.875 C-6.47744774 25.20853234 -8.7720395 24.73887558 -12 22 C-14.34693138 18.47960293 -14.32723764 16.79942991 -14.375 12.625 C-14.40335938 11.50351563 -14.43171875 10.38203125 -14.4609375 9.2265625 C-13.90929072 5.36503504 -12.69853414 3.75872449 -10 1 C-6.77896135 -0.61051932 -3.49248524 -0.44912958 0 0 Z M-7.72265625 4.12890625 C-9.52508502 6.76916124 -9.43357815 8.76472499 -9.4375 11.9375 C-9.45683594 12.97777344 -9.47617188 14.01804687 -9.49609375 15.08984375 C-8.89569116 18.61189042 -7.71458985 19.76919844 -5 22 C-1.75016865 20.91215032 -1.75016865 20.91215032 1 19 C1.15193163 16.87880076 1.22183514 14.75144685 1.25 12.625 C1.27578125 11.46226563 1.3015625 10.29953125 1.328125 9.1015625 C1.24646865 6.05327548 1.24646865 6.05327548 -0.265625 4.0859375 C-2.90600296 2.43272788 -5.11304825 2.41875498 -7.72265625 4.12890625 Z " fill="#E8801E" transform="translate(15,0)"/>
</svg>
