<svg width="23" height="25" viewBox="0 0 23 25" fill="none" xmlns="http://www.w3.org/2000/svg">
<path d="M0.588928 0V19.7437C0.588928 20.5577 0.915733 21.3383 1.49745 21.9139C2.07916 22.4895 2.86813 22.8129 3.6908 22.8129H17.8313C18.654 22.8129 19.4429 22.4895 20.0247 21.9139C20.6064 21.3383 20.9332 20.5577 20.9332 19.7437V3.06917C20.9332 2.25518 20.6064 1.47451 20.0247 0.89893C19.4429 0.323348 18.654 0 17.8313 0H5.34779" fill="#F6DEAD"/>
<path opacity="0.5" d="M13.2204 8.07498L10.4027 6.75427L7.58502 8.07498V1.03174H13.2204V8.07498Z" fill="#FFCC66"/>
<path d="M12.9028 9.11105L10.6135 8.03782C10.5587 8.01238 10.4989 7.9992 10.4384 7.9992C10.3778 7.9992 10.318 8.01238 10.2632 8.03782L7.97387 9.11105C7.91279 9.14066 7.84509 9.15437 7.77716 9.15091C7.70923 9.14745 7.64332 9.1269 7.58564 9.09123C7.52796 9.05556 7.48042 9.00595 7.4475 8.94705C7.41459 8.88815 7.39739 8.82192 7.39752 8.75462V2.18264C7.39752 2.07761 7.43969 1.97686 7.51475 1.90259C7.58981 1.82833 7.69161 1.78662 7.79776 1.78662H13.0749C13.1811 1.78662 13.2829 1.82833 13.358 1.90259C13.433 1.97686 13.4752 2.07761 13.4752 2.18264V8.75462C13.475 8.82139 13.4577 8.88703 13.425 8.94543C13.3923 9.00383 13.3452 9.0531 13.2881 9.08867C13.231 9.12423 13.1658 9.14494 13.0984 9.14886C13.031 9.15277 12.9638 9.13976 12.9028 9.11105Z" stroke="#4D2C19" stroke-width="1.00018" stroke-miterlimit="10"/>
<path d="M2.42102 1.77899V21.0098C2.42473 21.8062 2.74786 22.5684 3.31938 23.1291C3.89091 23.6898 4.66405 24.003 5.46886 23.9998H19.3632C20.168 24.003 20.9412 23.6898 21.5127 23.1291C22.0842 22.5684 22.4073 21.8062 22.4111 21.0098V4.77292C22.4092 4.37871 22.3289 3.98873 22.1748 3.62522C22.0206 3.26172 21.7956 2.93179 21.5126 2.65433C21.2295 2.37687 20.8941 2.15729 20.5253 2.00811C20.1565 1.85894 19.7616 1.78312 19.3632 1.78494L12.5871 1.72949" stroke="#4D2C19" stroke-width="1.00018" stroke-miterlimit="10" stroke-linecap="round"/>
<path d="M7.58502 14.479H17.9773" stroke="#4D2C19" stroke-width="1.00018" stroke-miterlimit="10" stroke-linecap="round"/>
<path d="M7.58502 16.8545H16.2062" stroke="#4D2C19" stroke-width="1.00018" stroke-miterlimit="10" stroke-linecap="round"/>
<path d="M7.58502 19.2305H13.8048" stroke="#4D2C19" stroke-width="1.00018" stroke-miterlimit="10" stroke-linecap="round"/>
</svg>
