<svg width="18" height="24" viewBox="0 0 18 24" fill="none" xmlns="http://www.w3.org/2000/svg">
<path opacity="0.5" d="M8.29694 7.95261L7.79753 8.28354L3.87948 3.25839L4.13537 3.08929C4.34661 2.94785 4.58386 2.84758 4.83349 2.79425C5.08312 2.74091 5.34022 2.73555 5.59006 2.77848C5.8399 2.82141 6.07756 2.91178 6.28942 3.04441C6.50127 3.17704 6.68315 3.34933 6.82462 3.55138L8.65981 6.15625C8.8564 6.43661 8.9286 6.78304 8.86059 7.1197C8.79258 7.45636 8.58991 7.75586 8.29694 7.95261Z" fill="#FFCC66"/>
<path opacity="0.5" d="M16.5304 20.0012L16.0329 20.3316L12.1144 15.3046L12.3698 15.1337C12.5811 14.9925 12.8184 14.8924 13.0679 14.8393C13.3175 14.7861 13.5746 14.7807 13.8243 14.8237C14.0741 14.8666 14.3117 14.9569 14.5236 15.0893C14.7354 15.2218 14.9174 15.3939 15.059 15.5958L16.8986 18.2015C16.9962 18.3407 17.0641 18.4977 17.0984 18.6636C17.1328 18.8294 17.1328 19.0007 17.0986 19.1679C17.0645 19.335 16.9967 19.4946 16.8992 19.6376C16.8017 19.7806 16.6764 19.9041 16.5304 20.0012Z" fill="#FFCC66"/>
<path opacity="0.5" d="M6.98343 7.53369L6.48402 7.86462C6.05723 8.14953 5.76164 8.58448 5.66223 9.07389C5.56282 9.56329 5.66774 10.0671 5.9539 10.4745L8.55979 14.1738C8.70165 14.3757 8.88382 14.5477 9.09587 14.6802C9.30792 14.8127 9.54569 14.9029 9.79561 14.9458C10.0455 14.9886 10.3027 14.9833 10.5524 14.93C10.8021 14.8768 11.0395 14.7766 11.2509 14.6354L11.7618 14.3014C11.906 14.205 12.068 14.1366 12.2383 14.1002C12.4086 14.0638 12.5841 14.0601 12.7546 14.0893C12.9251 14.1185 13.0874 14.18 13.2321 14.2703C13.3768 14.3606 13.5011 14.4779 13.598 14.6156L15.9657 17.9766C16.0624 18.1136 16.1299 18.2682 16.1643 18.4317C16.1987 18.5951 16.1992 18.7641 16.166 18.929C16.1327 19.0939 16.0662 19.2515 15.9704 19.3927C15.8745 19.5339 15.7512 19.656 15.6074 19.752L13.9063 20.8898C13.6151 21.086 13.2756 21.2028 12.9244 21.2274C12.5732 21.2521 12.2235 21.1837 11.9131 21.0296C8.851 19.4984 6.23695 17.2592 4.29849 14.5071C2.36004 11.7549 1.15594 8.57321 0.791002 5.23888C0.754765 4.90147 0.814497 4.5591 0.963785 4.24856C1.11307 3.93802 1.34628 3.67107 1.63833 3.47636L2.82483 2.68142C3.25179 2.39675 3.77491 2.28551 4.27919 2.37216C4.78348 2.45881 5.22765 2.73626 5.51407 3.14351L7.34927 5.74838C7.54146 6.02844 7.61081 6.3724 7.54239 6.70628C7.47397 7.04015 7.27326 7.33727 6.98343 7.53369Z" fill="#FFCC66"/>
<path d="M8.29694 7.95261L7.79753 8.28354L3.87948 3.25839L4.13537 3.08929C4.34661 2.94785 4.58386 2.84758 4.83349 2.79425C5.08312 2.74091 5.34022 2.73555 5.59006 2.77848C5.8399 2.82141 6.07756 2.91178 6.28942 3.04441C6.50127 3.17704 6.68315 3.34933 6.82462 3.55138L8.65981 6.15625C8.8564 6.43661 8.9286 6.78304 8.86059 7.1197C8.79258 7.45636 8.58991 7.75586 8.29694 7.95261Z" stroke="#4D2C19" stroke-width="0.78538" stroke-miterlimit="10"/>
<path d="M16.9209 20.1667L15.2198 21.3045C14.9289 21.5007 14.5898 21.6174 14.2388 21.642C13.8879 21.6665 13.5385 21.598 13.2285 21.4438C10.1647 19.9146 7.54917 17.6761 5.61014 14.9237C3.67111 12.1713 2.46756 8.98867 2.10451 5.65359C2.06783 5.31614 2.12736 4.97364 2.27669 4.66302C2.42601 4.3524 2.65946 4.08547 2.95183 3.89105L3.88293 3.26707L7.80005 8.29639C7.58831 8.43713 7.40659 8.61637 7.26529 8.82384C7.12399 9.03131 7.0259 9.26292 6.97665 9.50539C6.9274 9.74785 6.92796 9.99641 6.97829 10.2368C7.02861 10.4772 7.12772 10.7047 7.26993 10.9063L9.87581 14.6056C10.0173 14.8076 10.1992 14.9799 10.411 15.1125C10.6229 15.2452 10.8605 15.3355 11.1104 15.3785C11.3602 15.4214 11.6173 15.4161 11.867 15.3627C12.1166 15.3094 12.3538 15.2091 12.5651 15.0677L13.0759 14.7337C13.2203 14.6372 13.3823 14.5689 13.5528 14.5327C13.7233 14.4964 13.8988 14.4928 14.0694 14.5221C14.24 14.5515 14.4023 14.6132 14.5469 14.7037C14.6916 14.7942 14.8159 14.9118 14.9126 15.0497L17.2798 18.4089C17.4689 18.6845 17.5373 19.023 17.4702 19.3517C17.4031 19.6803 17.2059 19.973 16.9209 20.1667Z" stroke="#4D2C19" stroke-width="0.78538" stroke-miterlimit="10"/>
<path d="M12.356 15.4524L16.3907 20.5153" stroke="#4D2C19" stroke-width="0.78538" stroke-miterlimit="10"/>
<path d="M16.4032 13.7666C16.3947 14.0125 16.5871 14.2187 16.833 14.2271C17.0788 14.2356 17.285 14.0432 17.2935 13.7973L16.4032 13.7666ZM10.0416 7.58435C9.88013 7.76998 9.89975 8.05134 10.0854 8.21277L13.1105 10.8435C13.2961 11.0049 13.5775 10.9853 13.7389 10.7997C13.9003 10.614 13.8807 10.3327 13.6951 10.1712L11.0061 7.83283L13.3445 5.14385C13.506 4.95821 13.4863 4.67686 13.3007 4.51542C13.1151 4.35399 12.8337 4.37361 12.6723 4.55924L10.0416 7.58435ZM16.8483 13.782L17.2935 13.7973C17.4059 10.5386 16.7447 8.7624 15.3499 7.92593C14.6738 7.52053 13.8781 7.37252 13.0426 7.33438C12.2091 7.29632 11.2866 7.36675 10.3467 7.43228L10.3777 7.87665L10.4087 8.32101C11.3678 8.25413 12.2314 8.18915 13.002 8.22433C13.7706 8.25942 14.3969 8.39327 14.8917 8.68996C15.8383 9.25766 16.5135 10.5665 16.4032 13.7666L16.8483 13.782Z" fill="#4D2C19"/>
</svg>
